<svg width="211" height="19" viewBox="0 0 211 19" fill="none" xmlns="http://www.w3.org/2000/svg">
<path d="M9.66395 16.1632V18.1072H0.543945V1.78717H9.42395V3.75517H2.63195V8.86717H8.70395V10.8352H2.63195V16.1632H9.66395Z" fill="#D8A02E"/>
<path d="M18.5739 7.83517C18.1259 7.83517 17.5979 7.94717 16.9899 8.17117C16.3979 8.39517 15.6779 8.85117 14.8299 9.53917V18.1072H12.8619V6.22717H14.7339V7.88317C15.5819 7.16317 16.3499 6.66717 17.0379 6.39517C17.7419 6.12317 18.4139 5.98717 19.0539 5.98717C20.1579 5.98717 20.9979 6.33917 21.5739 7.04317C22.1659 7.73117 22.4619 8.71517 22.4619 9.99517V18.1072H20.4939V10.2832C20.4939 8.65117 19.8539 7.83517 18.5739 7.83517Z" fill="#D8A02E"/>
<path d="M34.9093 6.22717L30.7093 18.1072H28.8613L24.6133 6.22717H26.6533L28.6453 12.0112L29.8453 15.6352L31.0213 12.0112L32.9653 6.22717H34.9093Z" fill="#D8A02E"/>
<path d="M39.6296 3.32317H37.4216V1.11517H39.6296V3.32317ZM39.5096 18.1072H37.5416V6.22717H39.5096V18.1072Z" fill="#D8A02E"/>
<path d="M49.9926 7.95517C49.2726 7.95517 48.5686 8.08317 47.8806 8.33917C47.2086 8.59517 46.4886 9.08317 45.7206 9.80317V18.1072H43.7526V6.22717H45.6246V8.14717C46.4406 7.34717 47.1846 6.78717 47.8566 6.46717C48.5446 6.14717 49.2566 5.98717 49.9926 5.98717V7.95517Z" fill="#D8A02E"/>
<path d="M61.9731 11.4352V12.8752C61.9731 14.5712 61.5331 15.9072 60.6531 16.8832C59.7891 17.8592 58.5491 18.3472 56.9331 18.3472C55.3331 18.3472 54.0931 17.8592 53.2131 16.8832C52.3331 15.9072 51.8931 14.5712 51.8931 12.8752V11.4352C51.8931 9.77117 52.3251 8.45117 53.1891 7.47517C54.0691 6.48317 55.3171 5.98717 56.9331 5.98717C58.5491 5.98717 59.7891 6.48317 60.6531 7.47517C61.5331 8.45117 61.9731 9.77117 61.9731 11.4352ZM59.9331 11.4352C59.9331 10.2992 59.6771 9.41117 59.1651 8.77117C58.6531 8.11517 57.9091 7.78717 56.9331 7.78717C55.9731 7.78717 55.2291 8.11517 54.7011 8.77117C54.1891 9.41117 53.9331 10.2992 53.9331 11.4352V12.8752C53.9331 14.0592 54.1891 14.9712 54.7011 15.6112C55.2291 16.2512 55.9731 16.5712 56.9331 16.5712C57.9091 16.5712 58.6531 16.2512 59.1651 15.6112C59.6771 14.9712 59.9331 14.0592 59.9331 12.8752V11.4352Z" fill="#D8A02E"/>
<path d="M71.1414 7.83517C70.6935 7.83517 70.1894 7.95517 69.6294 8.19517C69.0695 8.41917 68.3654 8.86717 67.5174 9.53917V18.1072H65.5494V6.22717H67.4214V7.88317C68.2694 7.17917 69.0214 6.69117 69.6774 6.41917C70.3334 6.13117 70.9814 5.98717 71.6214 5.98717C72.3734 5.98717 72.9974 6.16317 73.4934 6.51517C73.9894 6.85117 74.3574 7.33917 74.5974 7.97917C75.4774 7.22717 76.2614 6.70717 76.9494 6.41917C77.6535 6.13117 78.3414 5.98717 79.0134 5.98717C80.0694 5.98717 80.8774 6.33917 81.4374 7.04317C81.9974 7.73117 82.2774 8.71517 82.2774 9.99517V18.1072H80.3094V10.2832C80.3094 8.65117 79.7174 7.83517 78.5334 7.83517C78.0854 7.83517 77.5734 7.95517 76.9974 8.19517C76.4374 8.41917 75.7334 8.86717 74.8854 9.53917C74.9014 9.60317 74.9094 9.67517 74.9094 9.75517C74.9094 9.83517 74.9094 9.91517 74.9094 9.99517V18.1072H72.9414V10.2832C72.9414 8.65117 72.3414 7.83517 71.1414 7.83517Z" fill="#D8A02E"/>
<path d="M95.0248 17.4112C94.3048 17.7632 93.5848 18.0032 92.8648 18.1312C92.1448 18.2752 91.4808 18.3472 90.8728 18.3472C89.1608 18.3472 87.8808 17.8592 87.0328 16.8832C86.2008 15.9072 85.7848 14.5712 85.7848 12.8752V11.4352C85.7848 9.78717 86.2008 8.46717 87.0328 7.47517C87.8808 6.48317 89.0728 5.98717 90.6088 5.98717C91.4248 5.98717 92.1688 6.15517 92.8408 6.49117C93.5288 6.81117 94.0728 7.30717 94.4728 7.97917C94.8888 8.63517 95.0968 9.48317 95.0968 10.5232C95.0968 11.1952 95.0008 11.9632 94.8088 12.8272H87.7288V12.8752C87.7288 14.0912 87.9768 15.0112 88.4728 15.6352C88.9848 16.2592 89.8008 16.5712 90.9208 16.5712C91.4328 16.5712 91.9928 16.5072 92.6008 16.3792C93.2248 16.2512 93.8328 16.0512 94.4248 15.7792L95.0248 17.4112ZM90.6088 7.71517C89.6808 7.71517 88.9768 8.01917 88.4968 8.62717C88.0328 9.21917 87.7768 10.0592 87.7288 11.1472H93.1048C93.1528 10.8592 93.1768 10.5872 93.1768 10.3312C93.1768 9.43517 92.9208 8.77917 92.4088 8.36317C91.9128 7.93117 91.3128 7.71517 90.6088 7.71517Z" fill="#D8A02E"/>
<path d="M104.215 7.83517C103.767 7.83517 103.239 7.94717 102.631 8.17117C102.039 8.39517 101.319 8.85117 100.471 9.53917V18.1072H98.5026V6.22717H100.375V7.88317C101.223 7.16317 101.991 6.66717 102.679 6.39517C103.383 6.12317 104.055 5.98717 104.695 5.98717C105.799 5.98717 106.639 6.33917 107.215 7.04317C107.807 7.73117 108.103 8.71517 108.103 9.99517V18.1072H106.135V10.2832C106.135 8.65117 105.495 7.83517 104.215 7.83517Z" fill="#D8A02E"/>
<path d="M118.742 17.6752C117.846 18.1232 116.894 18.3472 115.886 18.3472C115.022 18.3472 114.342 18.1712 113.846 17.8192C113.366 17.4672 113.022 16.9952 112.814 16.4032C112.622 15.8112 112.526 15.1552 112.526 14.4352V7.95517H110.462V6.22717H112.526V2.91517H114.494V6.22717H118.382V7.95517H114.494V14.3632C114.494 15.1952 114.63 15.7712 114.902 16.0912C115.19 16.3952 115.63 16.5472 116.222 16.5472C116.51 16.5472 116.806 16.5152 117.11 16.4512C117.43 16.3712 117.774 16.2432 118.142 16.0672L118.742 17.6752Z" fill="#D8A02E"/>
<path d="M130.019 18.2272C129.283 18.2272 128.691 18.0592 128.243 17.7232C127.811 17.3872 127.507 16.9712 127.331 16.4752C126.547 17.1632 125.835 17.6512 125.195 17.9392C124.555 18.2112 123.915 18.3472 123.275 18.3472C122.235 18.3472 121.467 18.0112 120.971 17.3392C120.475 16.6672 120.227 15.8432 120.227 14.8672C120.227 14.2112 120.347 13.6272 120.587 13.1152C120.827 12.6032 121.235 12.2032 121.811 11.9152C122.387 11.6112 123.163 11.4592 124.139 11.4592C124.571 11.4592 125.043 11.4912 125.555 11.5552C126.067 11.6032 126.587 11.6672 127.115 11.7472V10.1392C127.115 9.24317 126.915 8.63517 126.515 8.31517C126.131 7.97917 125.563 7.81117 124.811 7.81117C123.787 7.81117 122.643 8.09117 121.379 8.65117L120.755 7.01917C121.491 6.68317 122.195 6.42717 122.867 6.25117C123.539 6.07517 124.219 5.98717 124.907 5.98717C126.027 5.98717 126.883 6.17117 127.475 6.53917C128.067 6.90717 128.475 7.39517 128.699 8.00317C128.923 8.61117 129.035 9.27517 129.035 9.99517V15.1312C129.035 15.4992 129.107 15.8112 129.251 16.0672C129.395 16.3072 129.683 16.4272 130.115 16.4272H130.379V18.2272H130.019ZM122.171 14.8432C122.171 15.3872 122.299 15.8272 122.555 16.1632C122.811 16.4992 123.179 16.6672 123.659 16.6672C124.075 16.6672 124.555 16.5472 125.099 16.3072C125.643 16.0512 126.315 15.5472 127.115 14.7952V13.2832C126.027 13.1072 125.067 13.0192 124.235 13.0192C123.499 13.0192 122.971 13.1712 122.651 13.4752C122.331 13.7792 122.171 14.2352 122.171 14.8432Z" fill="#D8A02E"/>
<path d="M133.143 15.2272V0.347168H135.111V15.1312C135.111 15.5632 135.175 15.8912 135.303 16.1152C135.447 16.3232 135.727 16.4272 136.143 16.4272H136.527V18.2272H135.975C134.919 18.2272 134.183 17.9472 133.767 17.3872C133.351 16.8272 133.143 16.1072 133.143 15.2272Z" fill="#D8A02E"/>
<path d="M154.369 18.1072V10.8352H147.241V18.1072H145.153V1.78717H147.241V8.86717H154.369V1.78717H156.457V18.1072H154.369Z" fill="#D8A02E"/>
<path d="M169.72 17.4112C169 17.7632 168.28 18.0032 167.56 18.1312C166.84 18.2752 166.176 18.3472 165.568 18.3472C163.856 18.3472 162.576 17.8592 161.728 16.8832C160.896 15.9072 160.48 14.5712 160.48 12.8752V11.4352C160.48 9.78717 160.896 8.46717 161.728 7.47517C162.576 6.48317 163.768 5.98717 165.304 5.98717C166.12 5.98717 166.864 6.15517 167.536 6.49117C168.224 6.81117 168.768 7.30717 169.168 7.97917C169.584 8.63517 169.792 9.48317 169.792 10.5232C169.792 11.1952 169.696 11.9632 169.504 12.8272H162.424V12.8752C162.424 14.0912 162.672 15.0112 163.168 15.6352C163.68 16.2592 164.496 16.5712 165.616 16.5712C166.128 16.5712 166.688 16.5072 167.296 16.3792C167.92 16.2512 168.528 16.0512 169.12 15.7792L169.72 17.4112ZM165.304 7.71517C164.376 7.71517 163.672 8.01917 163.192 8.62717C162.728 9.21917 162.472 10.0592 162.424 11.1472H167.8C167.848 10.8592 167.872 10.5872 167.872 10.3312C167.872 9.43517 167.616 8.77917 167.104 8.36317C166.608 7.93117 166.008 7.71517 165.304 7.71517Z" fill="#D8A02E"/>
<path d="M181.886 18.2272C181.15 18.2272 180.558 18.0592 180.11 17.7232C179.678 17.3872 179.374 16.9712 179.198 16.4752C178.414 17.1632 177.702 17.6512 177.062 17.9392C176.422 18.2112 175.782 18.3472 175.142 18.3472C174.102 18.3472 173.334 18.0112 172.838 17.3392C172.342 16.6672 172.094 15.8432 172.094 14.8672C172.094 14.2112 172.214 13.6272 172.454 13.1152C172.694 12.6032 173.102 12.2032 173.678 11.9152C174.254 11.6112 175.03 11.4592 176.006 11.4592C176.438 11.4592 176.91 11.4912 177.422 11.5552C177.934 11.6032 178.454 11.6672 178.982 11.7472V10.1392C178.982 9.24317 178.782 8.63517 178.382 8.31517C177.998 7.97917 177.43 7.81117 176.678 7.81117C175.654 7.81117 174.51 8.09117 173.246 8.65117L172.622 7.01917C173.358 6.68317 174.062 6.42717 174.734 6.25117C175.406 6.07517 176.086 5.98717 176.774 5.98717C177.894 5.98717 178.75 6.17117 179.342 6.53917C179.934 6.90717 180.342 7.39517 180.566 8.00317C180.79 8.61117 180.902 9.27517 180.902 9.99517V15.1312C180.902 15.4992 180.974 15.8112 181.118 16.0672C181.262 16.3072 181.55 16.4272 181.982 16.4272H182.246V18.2272H181.886ZM174.038 14.8432C174.038 15.3872 174.166 15.8272 174.422 16.1632C174.678 16.4992 175.046 16.6672 175.526 16.6672C175.942 16.6672 176.422 16.5472 176.966 16.3072C177.51 16.0512 178.182 15.5472 178.982 14.7952V13.2832C177.894 13.1072 176.934 13.0192 176.102 13.0192C175.366 13.0192 174.838 13.1712 174.518 13.4752C174.198 13.7792 174.038 14.2352 174.038 14.8432Z" fill="#D8A02E"/>
<path d="M185.01 15.2272V0.347168H186.978V15.1312C186.978 15.5632 187.042 15.8912 187.17 16.1152C187.314 16.3232 187.594 16.4272 188.01 16.4272H188.394V18.2272H187.842C186.786 18.2272 186.05 17.9472 185.634 17.3872C185.218 16.8272 185.01 16.1072 185.01 15.2272Z" fill="#D8A02E"/>
<path d="M197.89 17.6752C196.994 18.1232 196.042 18.3472 195.034 18.3472C194.17 18.3472 193.49 18.1712 192.994 17.8192C192.514 17.4672 192.17 16.9952 191.962 16.4032C191.77 15.8112 191.674 15.1552 191.674 14.4352V7.95517H189.61V6.22717H191.674V2.91517H193.642V6.22717H197.53V7.95517H193.642V14.3632C193.642 15.1952 193.778 15.7712 194.05 16.0912C194.338 16.3952 194.778 16.5472 195.37 16.5472C195.658 16.5472 195.954 16.5152 196.258 16.4512C196.578 16.3712 196.922 16.2432 197.29 16.0672L197.89 17.6752Z" fill="#D8A02E"/>
<path d="M206.191 7.83517C205.743 7.83517 205.215 7.94717 204.607 8.17117C204.015 8.39517 203.295 8.85117 202.447 9.53917V18.1072H200.479V0.347168H202.447V7.81117C203.279 7.10717 204.031 6.62717 204.703 6.37117C205.375 6.11517 206.031 5.98717 206.671 5.98717C207.775 5.98717 208.615 6.33917 209.191 7.04317C209.783 7.73117 210.079 8.71517 210.079 9.99517V18.1072H208.111V10.2832C208.111 8.65117 207.471 7.83517 206.191 7.83517Z" fill="#D8A02E"/>
</svg>
